<svg xmlns="http://www.w3.org/2000/svg" xmlns:xlink="http://www.w3.org/1999/xlink" width="800" zoomAndPan="magnify" viewBox="0 0 600 374.999991" height="500" preserveAspectRatio="xMidYMid meet" version="1.0"><defs><g/></defs><g fill="#ffffff" fill-opacity="1"><g transform="translate(28.824804, 219.221206)"><g><path d="M 28.46875 -38 L 28.46875 0 L 6.890625 0 L 6.890625 -94.6875 L 28.46875 -94.6875 L 28.46875 -56.9375 L 59 -56.9375 L 59 -94.6875 L 80.578125 -94.6875 L 80.578125 0 L 59 0 L 59 -38 Z M 28.46875 -38 "/></g></g></g><g fill="#ffffff" fill-opacity="1"><g transform="translate(116.284985, 219.221206)"><g><path d="M 93.09375 0 L 63.359375 0 L 28.46875 -40.171875 L 28.46875 0 L 6.890625 0 L 6.890625 -94.6875 L 28.46875 -94.6875 L 28.46875 -56.015625 L 60.953125 -94.6875 L 87.125 -94.6875 L 49.015625 -49.8125 Z M 93.09375 0 "/></g></g></g><g fill="#ffffff" fill-opacity="1"><g transform="translate(206.614584, 219.221206)"><g><path d="M 41.78125 -96.421875 C 46.90625 -96.421875 51.914062 -95.671875 56.8125 -94.171875 C 61.707031 -92.679688 65.34375 -91.210938 67.71875 -89.765625 L 71.171875 -87.46875 L 62.4375 -70.25 C 61.75 -70.707031 60.789062 -71.296875 59.5625 -72.015625 C 58.34375 -72.742188 56.050781 -73.71875 52.6875 -74.9375 C 49.320312 -76.164062 46.179688 -76.78125 43.265625 -76.78125 C 39.671875 -76.78125 36.898438 -76.015625 34.953125 -74.484375 C 33.003906 -72.960938 32.03125 -70.898438 32.03125 -68.296875 C 32.03125 -66.992188 32.488281 -65.785156 33.40625 -64.671875 C 34.320312 -63.566406 35.890625 -62.382812 38.109375 -61.125 C 40.328125 -59.863281 42.273438 -58.847656 43.953125 -58.078125 C 45.640625 -57.316406 48.242188 -56.171875 51.765625 -54.640625 C 57.890625 -52.035156 63.113281 -48.492188 67.4375 -44.015625 C 71.757812 -39.535156 73.921875 -34.46875 73.921875 -28.8125 C 73.921875 -23.375 72.941406 -18.628906 70.984375 -14.578125 C 69.035156 -10.523438 66.359375 -7.347656 62.953125 -5.046875 C 59.546875 -2.753906 55.773438 -1.054688 51.640625 0.046875 C 47.515625 1.160156 43.039062 1.71875 38.21875 1.71875 C 34.09375 1.71875 30.039062 1.296875 26.0625 0.453125 C 22.082031 -0.378906 18.75 -1.425781 16.0625 -2.6875 C 13.382812 -3.957031 10.972656 -5.203125 8.828125 -6.421875 C 6.691406 -7.648438 5.125 -8.6875 4.125 -9.53125 L 2.640625 -10.796875 L 13.421875 -28.921875 C 14.347656 -28.160156 15.613281 -27.1875 17.21875 -26 C 18.820312 -24.8125 21.671875 -23.222656 25.765625 -21.234375 C 29.859375 -19.242188 33.472656 -18.25 36.609375 -18.25 C 45.722656 -18.25 50.28125 -21.347656 50.28125 -27.546875 C 50.28125 -28.847656 49.953125 -30.050781 49.296875 -31.15625 C 48.648438 -32.269531 47.503906 -33.378906 45.859375 -34.484375 C 44.210938 -35.597656 42.753906 -36.476562 41.484375 -37.125 C 40.222656 -37.78125 38.15625 -38.773438 35.28125 -40.109375 C 32.414062 -41.453125 30.296875 -42.46875 28.921875 -43.15625 C 23.179688 -45.988281 18.742188 -49.523438 15.609375 -53.765625 C 12.472656 -58.015625 10.90625 -62.585938 10.90625 -67.484375 C 10.90625 -75.984375 14.039062 -82.929688 20.3125 -88.328125 C 26.59375 -93.722656 33.75 -96.421875 41.78125 -96.421875 Z M 41.78125 -96.421875 "/></g></g></g><g fill="#ffffff" fill-opacity="1"><g transform="translate(283.744825, 219.221206)"><g><path d="M 28.46875 -94.6875 L 28.46875 0 L 6.890625 0 L 6.890625 -94.6875 Z M 28.46875 -94.6875 "/></g></g></g><g fill="#ffffff" fill-opacity="1"><g transform="translate(319.096177, 219.221206)"><g><path d="M 6.890625 -94.6875 L 40.75 -94.6875 C 49.851562 -94.6875 57.273438 -92.257812 63.015625 -87.40625 C 68.753906 -82.550781 71.625 -75.609375 71.625 -66.578125 C 71.625 -59.609375 69.878906 -53.769531 66.390625 -49.0625 C 62.910156 -44.363281 58.1875 -41.054688 52.21875 -39.140625 L 84.828125 0 L 57.390625 0 L 28.46875 -37.421875 L 28.46875 0 L 6.890625 0 Z M 28.46875 -52.6875 L 30.984375 -52.6875 C 32.972656 -52.6875 34.65625 -52.722656 36.03125 -52.796875 C 37.414062 -52.878906 38.988281 -53.148438 40.75 -53.609375 C 42.507812 -54.066406 43.921875 -54.710938 44.984375 -55.546875 C 46.054688 -56.390625 46.972656 -57.613281 47.734375 -59.21875 C 48.503906 -60.832031 48.890625 -62.785156 48.890625 -65.078125 C 48.890625 -67.378906 48.503906 -69.332031 47.734375 -70.9375 C 46.972656 -72.539062 46.054688 -73.765625 44.984375 -74.609375 C 43.921875 -75.453125 42.507812 -76.101562 40.75 -76.5625 C 38.988281 -77.019531 37.414062 -77.285156 36.03125 -77.359375 C 34.65625 -77.441406 32.972656 -77.484375 30.984375 -77.484375 L 28.46875 -77.484375 Z M 28.46875 -52.6875 "/></g></g></g><g fill="#ffffff" fill-opacity="1"><g transform="translate(401.276622, 219.221206)"><g><path d="M -3.4375 -94.6875 L 22.5 -94.6875 L 42.234375 -64.390625 L 61.984375 -94.6875 L 87.921875 -94.6875 L 53.03125 -42.46875 L 53.03125 0 L 31.453125 0 L 31.453125 -42.46875 Z M -3.4375 -94.6875 "/></g></g></g><g fill="#ffffff" fill-opacity="1"><g transform="translate(485.752603, 219.221206)"><g><path d="M 54.984375 -94.6875 L 93.203125 0 L 70.015625 0 L 63.015625 -18.9375 L 26.96875 -18.9375 L 19.96875 0 L -3.21875 0 L 35.015625 -94.6875 Z M 55.671875 -37.875 L 45.109375 -65.421875 L 44.875 -65.421875 L 34.3125 -37.875 Z M 55.671875 -37.875 "/></g></g></g><g fill="#ffffff" fill-opacity="1"><g transform="translate(575.732571, 219.221206)"><g/></g></g></svg>